<!-- Generated by IcoMoon.io -->
<svg version="1.1" xmlns="http://www.w3.org/2000/svg" width="32" height="32" viewBox="0 0 32 32">
<title>1</title>
<path d="M0 17.031q0-0.406 0.281-0.688t0.719-0.281h8q0.438 0 0.719 0.281t0.281 0.688q0 0.422-0.289 0.727t-0.711 0.305h-8q-0.422 0-0.711-0.305t-0.289-0.727zM0 13.031q0-0.406 0.281-0.688t0.719-0.281h4q0.438 0 0.719 0.281t0.281 0.688q0 0.422-0.289 0.727t-0.711 0.305h-4q-0.422 0-0.711-0.305t-0.289-0.727zM2 9.031q0-0.406 0.281-0.688t0.719-0.281h4q0.438 0 0.719 0.281t0.281 0.688q0 0.422-0.289 0.727t-0.711 0.305h-4q-0.422 0-0.711-0.305t-0.289-0.727zM8.688 10.625q0-2.484 1.719-4.281t4.219-1.906q2.375-2.438 5.719-2.438t5.719 2.438q2.5 0.109 4.219 1.906t1.719 4.281q0 2.625-1.813 4.438t-4.438 1.813q-0.563 0-1.063-0.063-2 1.25-4.344 1.25t-4.344-1.25q-0.5 0.063-1.125 0.063-2.563 0-4.375-1.813t-1.813-4.438zM14 24q0-1.109 2-4l0.5 0.75q0.563 0.859 1 1.75 0.5 1.031 0.5 1.5 0 0.813-0.594 1.406t-1.406 0.594-1.406-0.594-0.594-1.406zM22 28q0-1.109 2-4l0.5 0.75q0.563 0.859 1 1.75 0.5 1.031 0.5 1.5 0 0.813-0.594 1.406t-1.406 0.594-1.406-0.594-0.594-1.406z"></path>
</svg>
