<!-- Generated by IcoMoon.io -->
<svg version="1.1" xmlns="http://www.w3.org/2000/svg" width="32" height="32" viewBox="0 0 32 32">
<title>untitled22</title>
<path d="M6.813 11.25q-0.344-0.375-0.344-0.734t0.344-0.703 0.703-0.344 0.734 0.344l1.375 1.438q0.344 0.344 0.344 0.688t-0.344 0.688-0.688 0.344l-0.688-0.344zM9 21q0-0.438 0.281-0.719t0.719-0.281h12q0.438 0 0.719 0.281t0.281 0.719-0.281 0.719-0.719 0.281h-12q-0.438 0-0.719-0.281t-0.281-0.719zM9.125 18q0.375-2.578 2.313-4.281 1.953-1.719 4.563-1.719t4.563 1.719q1.938 1.703 2.313 4.281h-2q-0.297-1.75-1.688-2.875-1.375-1.125-3.188-1.125t-3.188 1.125q-1.391 1.125-1.688 2.875h-2zM11 25q0-0.438 0.281-0.719t0.719-0.281h8q0.438 0 0.719 0.281t0.281 0.719-0.281 0.719-0.719 0.281h-8q-0.438 0-0.719-0.281t-0.281-0.719zM15 9v-2q0-0.438 0.281-0.719t0.719-0.281 0.719 0.281 0.281 0.719v2q0 0.438-0.281 0.719t-0.719 0.281-0.719-0.281-0.281-0.719zM22.375 12.625q-0.344-0.344-0.344-0.688t0.344-0.688l1.375-1.438q0.375-0.344 0.734-0.344t0.703 0.344 0.344 0.703-0.344 0.734l-1.438 1.375q-0.344 0.344-0.688 0.344z"></path>
</svg>
