<!-- Generated by IcoMoon.io -->
<svg version="1.1" xmlns="http://www.w3.org/2000/svg" width="32" height="32" viewBox="0 0 32 32">
<title>untitled18</title>
<path d="M0 11q0-2.875 2.063-4.938t4.938-2.063q0.563 0 1 0.063 1.391-1.953 3.5-3 2.156-1.063 4.5-1.063t4.5 1.063q2.109 1.047 3.5 3 0.438-0.063 1-0.063 2.875 0 4.938 2.063t2.063 4.938-2.063 4.938-4.938 2.063q-1.328 0-2.5-0.438-2.422 2.109-5.813 2.375l-0.688 2.063 2 2-6 6 2-6-2-2 2.188-2.188q-2.688-0.5-4.688-2.25-1.172 0.438-2.5 0.438-2.875 0-4.938-2.063t-2.063-4.938z"></path>
</svg>
