<!-- Generated by IcoMoon.io -->
<svg version="1.1" xmlns="http://www.w3.org/2000/svg" width="32" height="32" viewBox="0 0 32 32">
<title>untitled11</title>
<path d="M8.836 12.43q0.070-0.617 0.484-1.141t1.023-0.727q0.969-0.375 1.906 0t1.313 1.25q0.391 0.891 0 1.813t-1.313 1.313q-0.438 0.188-0.969 0.188t-0.969-0.188q-0.906-0.391-1.313-1.281-0.234-0.609-0.164-1.227zM10.188 12.75q0 0.438 0.313 0.75t0.781 0.313 0.781-0.313 0.313-0.75-0.313-0.75-0.781-0.313-0.781 0.313-0.313 0.75zM15.563 21.625v-11.063h7.625v2h-5.438v2.563h4.625v2h-4.625v4.5h-2.188z"></path>
</svg>
