<!-- Generated by IcoMoon.io -->
<svg version="1.1" xmlns="http://www.w3.org/2000/svg" width="32" height="32" viewBox="0 0 32 32">
<title>untitled25</title>
<path d="M3.938 16.938q0-0.438 0.281-0.719t0.719-0.281h2q0.438 0 0.719 0.281t0.281 0.719-0.281 0.719-0.719 0.281h-2q-0.438 0-0.719-0.281t-0.281-0.719zM7.75 26.125q-0.344-0.344-0.344-0.703t0.344-0.734l1.438-1.375q0.344-0.391 0.703-0.391l0.672 0.359q0.344 0.359 0.344 0.711t-0.344 0.695l-1.375 1.438q-0.375 0.344-0.734 0.344t-0.703-0.344zM7.75 9.188q-0.344-0.375-0.344-0.734t0.344-0.703 0.703-0.344 0.734 0.344l1.375 1.438q0.344 0.344 0.344 0.688t-0.344 0.688-0.688 0.344l-0.688-0.344zM9.938 16.938q0-2.875 2.063-4.938t4.938-2.063q0.922 0 2 0.313 1.078-0.313 2-0.313 2.875 0 4.938 2.063t2.063 4.938-2.063 4.938-4.938 2.063q-0.922 0-2-0.313-1.078 0.313-2 0.313-2.875 0-4.938-2.063t-2.063-4.938zM11.938 16.938q0 1.797 1.156 3.188 1.141 1.375 2.844 1.688-2-2-2-4.875t2-4.875q-1.703 0.313-2.844 1.688-1.156 1.391-1.156 3.188zM15.938 28.938v-2q0-0.438 0.281-0.719t0.719-0.281 0.719 0.281 0.281 0.719v2q0 0.438-0.281 0.719t-0.719 0.281-0.719-0.281-0.281-0.719zM15.938 6.938v-2q0-0.438 0.281-0.719t0.719-0.281 0.719 0.281 0.281 0.719v2q0 0.438-0.281 0.719t-0.719 0.281-0.719-0.281-0.281-0.719z"></path>
</svg>
