<!-- Generated by IcoMoon.io -->
<svg version="1.1" xmlns="http://www.w3.org/2000/svg" width="32" height="32" viewBox="0 0 32 32">
<title>untitled42</title>
<path d="M0 11q0-2.875 2.063-4.938t4.938-2.063q0.563 0 1 0.063 1.391-1.953 3.5-3 2.156-1.063 4.5-1.063t4.5 1.063q2.109 1.047 3.5 3 0.438-0.063 1-0.063 2.875 0 4.938 2.063t2.063 4.938-2.063 4.938-4.938 2.063q-1.328 0-2.5-0.438-2.813 2.438-6.5 2.438t-6.5-2.438q-1.172 0.438-2.5 0.438-2.875 0-4.938-2.063t-2.063-4.938zM2 11q0 2.063 1.469 3.531t3.531 1.469q1.563 0 2.875-0.938 2.438 2.938 6.125 2.938t6.125-2.938q1.313 0.938 2.875 0.938 2.063 0 3.531-1.469t1.469-3.531-1.469-3.531-3.531-1.469q-1 0-1.875 0.375-1.047-1.984-2.938-3.188-1.859-1.188-4.188-1.188t-4.188 1.188q-1.891 1.203-2.938 3.188-0.875-0.375-1.875-0.375-2.063 0-3.531 1.469t-1.469 3.531zM11.125 28.406q0.125-0.469 0.5-0.656l1.125-0.688q-0.063-0.297-0.063-0.594t0.063-0.594l-1.125-0.625q-0.375-0.25-0.5-0.688-0.047-0.156-0.047-0.297 0-0.266 0.141-0.547 0.219-0.406 0.656-0.531t0.875 0.125l1.125 0.688q0.438-0.438 1-0.625v-1.313q0-0.438 0.344-0.781t0.781-0.344 0.781 0.344 0.344 0.781v1.313q0.563 0.188 1 0.625l1.125-0.688q0.438-0.25 0.875-0.125t0.656 0.531q0.141 0.266 0.141 0.547 0 0.141-0.047 0.297-0.125 0.438-0.5 0.688l-1.125 0.625q0.063 0.297 0.063 0.594t-0.063 0.594l1.125 0.688q0.375 0.188 0.5 0.656 0.047 0.172 0.047 0.328 0 0.281-0.141 0.516-0.234 0.391-0.664 0.5t-0.867-0.125l-1.125-0.625q-0.453 0.375-1 0.563v1.313q0 0.484-0.336 0.805t-0.789 0.32-0.789-0.32-0.336-0.805v-1.313q-0.547-0.188-1-0.563l-1.125 0.625q-0.438 0.234-0.867 0.125t-0.664-0.5q-0.141-0.234-0.141-0.516 0-0.156 0.047-0.328zM14.875 26.469q0 0.469 0.344 0.781t0.781 0.313 0.75-0.313q0.375-0.313 0.375-0.781t-0.344-0.781-0.781-0.313-0.781 0.313-0.344 0.781z"></path>
</svg>
