<!-- Generated by IcoMoon.io -->
<svg version="1.1" xmlns="http://www.w3.org/2000/svg" width="32" height="32" viewBox="0 0 32 32">
<title>untitled28</title>
<path d="M7.156 19.5q0.203-0.797 0.906-1.25l2.063-1.188q-0.125-0.531-0.125-1.078t0.125-1.109l-2.063-1.125q-0.703-0.453-0.906-1.25-0.063-0.281-0.063-0.547 0-0.516 0.25-0.984 0.391-0.719 1.219-0.906 0.266-0.063 0.531-0.063 0.516 0 0.969 0.25l2.063 1.188q0.891-0.688 1.875-1.063v-2.375q0-0.813 0.594-1.406t1.406-0.594 1.406 0.594 0.594 1.406v2.375q0.984 0.375 1.875 1.063l2.063-1.188q0.422-0.234 0.906-0.234 0.281 0 0.594 0.078 0.813 0.203 1.219 0.906 0.266 0.453 0.266 0.953 0 0.266-0.078 0.547-0.203 0.797-0.906 1.25l-2.063 1.188q0.125 0.531 0.125 1.063t-0.125 1.063l2.063 1.188q0.703 0.453 0.906 1.25 0.078 0.281 0.078 0.547 0 0.5-0.266 0.953-0.406 0.703-1.219 0.906-0.313 0.078-0.594 0.078-0.484 0-0.906-0.234l-2.063-1.188q-0.844 0.688-1.875 1.063v2.375q0 0.813-0.594 1.406t-1.406 0.594-1.406-0.594-0.594-1.406v-2.375q-0.984-0.375-1.875-1.063l-2.063 1.188q-0.422 0.234-0.906 0.234-0.281 0-0.594-0.078-0.813-0.203-1.219-0.906-0.266-0.453-0.266-0.953 0-0.266 0.078-0.547zM14 16q0 0.813 0.563 1.438 0.625 0.563 1.438 0.563t1.406-0.594 0.594-1.406-0.594-1.406-1.406-0.594-1.406 0.594-0.594 1.406z"></path>
</svg>
