<!-- Generated by IcoMoon.io -->
<svg version="1.1" xmlns="http://www.w3.org/2000/svg" width="32" height="32" viewBox="0 0 32 32">
<title>untitled21</title>
<path d="M0 23q0-0.438 0.281-0.719t0.719-0.281h8q0.438 0 0.719 0.281t0.281 0.719-0.281 0.719-0.719 0.281h-8q-0.438 0-0.719-0.281t-0.281-0.719zM0 19q0-0.438 0.281-0.719t0.719-0.281h4q0.438 0 0.719 0.281t0.281 0.719-0.281 0.719-0.719 0.281h-4q-0.438 0-0.719-0.281t-0.281-0.719zM2 15q0-0.438 0.281-0.719t0.719-0.281h4q0.438 0 0.719 0.281t0.281 0.719-0.281 0.719-0.719 0.281h-4q-0.438 0-0.719-0.281t-0.281-0.719zM8.688 16.625q0-2.5 1.719-4.313 1.719-1.828 4.219-1.938 2.375-2.438 5.719-2.438t5.719 2.438q2.5 0.109 4.219 1.938 1.719 1.813 1.719 4.313 0 2.563-1.813 4.375t-4.438 1.813q-0.563 0-1.063-0.063-2 1.313-4.344 1.313t-4.344-1.313q-0.5 0.063-1.125 0.063-2.563 0-4.375-1.813t-1.813-4.375z"></path>
</svg>
