<!-- Generated by IcoMoon.io -->
<svg version="1.1" xmlns="http://www.w3.org/2000/svg" width="32" height="32" viewBox="0 0 32 32">
<title>untitled10</title>
<path d="M9.063 13.625q-0.406-0.906 0-1.859t1.313-1.266q0.922-0.391 1.891 0.008t1.359 1.305q0.188 0.375 0.188 0.875t-0.188 0.938q-0.375 0.859-1.344 1.25-0.969 0.375-1.906 0t-1.313-1.25zM10.25 12.688q0 0.438 0.313 0.75t0.781 0.313 0.781-0.313 0.313-0.75-0.313-0.75-0.781-0.313-0.781 0.313-0.313 0.75zM15.563 18.125v-4.125q0-1.641 1.273-2.602t2.914-0.961q2.203 0 3.375 1.063l-1.063 1.688q-0.875-0.75-2.25-0.75-0.828 0-1.445 0.484t-0.617 1.516v3.188q0 1.031 0.617 1.516t1.445 0.484q1.234 0 2.313-0.75l1 1.688q-1.391 1.125-3.313 1.125-1.688 0-2.969-0.969t-1.281-2.594z"></path>
</svg>
