<!-- Generated by IcoMoon.io -->
<svg version="1.1" xmlns="http://www.w3.org/2000/svg" width="32" height="32" viewBox="0 0 32 32">
<title>untitled12</title>
<path d="M0 16.438q0-2.875 2.063-4.938t4.938-2.063q0.563 0 1 0.063 0.047-0.125 0.125-0.125-0.125-0.594-0.125-0.938 0-2.313 1.625-3.938t3.938-1.625h0.438q2.313-2.875 6-2.875t6 2.875h0.438q2.313 0 3.938 1.625t1.625 3.938q0 2.125-1.5 3.75 1.5 1.875 1.5 4.25 0 2.875-2.063 4.938t-4.938 2.063q-1.281 0-2.5-0.5-1.281 1.156-2.938 1.813l-1.125-1.125 0.375-0.75q2.031-0.828 3.313-2.375 1.313 0.938 2.875 0.938 2.063 0 3.531-1.469t1.469-3.531q0-1.672-1.063-3.063-0.734-0.922-1.789-1.43t-2.148-0.508l-0.813 0.063q-0.578 0.109-1.063 0.313-1.047-1.984-2.938-3.188-1.859-1.188-4.188-1.188-3.313 0-5.688 2.438-0.766 0.766-1.313 1.75-0.047 0.109-0.125 0.188-0.875-0.375-1.875-0.375-2.063 0-3.531 1.469t-1.469 3.531 1.469 3.531 3.531 1.469q1.563 0 2.875-0.938 0.672 0.797 1.625 1.438l-1.813 1.188-0.188-0.125q-1.172 0.438-2.5 0.438-2.875 0-4.938-2.063t-2.063-4.938zM10.188 7.313q2.625-1.875 5.813-1.875 2.344 0 4.5 1.063 2.109 1.047 3.5 3 0.438-0.063 1-0.063 2.25 0 4.125 1.313 0.875-1.016 0.875-2.313 0-1.5-1.031-2.531t-2.531-1.031q-0.719 0-1.375 0.25-0.688-1.438-2.063-2.281t-3-0.844-3 0.844-2.063 2.281q-0.656-0.25-1.375-0.25-1.172 0-2.094 0.688-0.891 0.672-1.281 1.75zM12 32l2-6-2-2 6-4-2 4 2 2z"></path>
</svg>
