<!-- Generated by IcoMoon.io -->
<svg version="1.1" xmlns="http://www.w3.org/2000/svg" width="32" height="32" viewBox="0 0 32 32">
<title>untitled32</title>
<path d="M3 26.938q0-0.438 0.281-0.719t0.719-0.281h24q0.438 0 0.719 0.281t0.281 0.719-0.281 0.719-0.719 0.281h-24q-0.438 0-0.719-0.281t-0.281-0.719zM3 22.938q0-0.438 0.281-0.719t0.719-0.281h24q0.438 0 0.719 0.281t0.281 0.719-0.281 0.719-0.719 0.281h-24q-0.438 0-0.719-0.281t-0.281-0.719zM3 18.938q0-0.438 0.281-0.719t0.719-0.281h24q0.438 0 0.719 0.281t0.281 0.719-0.281 0.719-0.719 0.281h-24q-0.438 0-0.719-0.281t-0.281-0.719zM9.031 10.813q0.281-2.813 2.281-4.813 1.25-1.25 3-1.875 0.188-0.063 0.359-0.063 0.391 0 0.703 0.313t0.313 0.672q0 0.156-0.063 0.328-0.391 1.047-0.391 2.109 0 0.641 0.141 1.266 0.375 1.672 1.625 2.906 1.25 1.219 2.906 1.594 0.625 0.141 1.25 0.141l2.094-0.391q0.172-0.063 0.328-0.063 0.375 0 0.68 0.313t0.305 0.703q0 0.172-0.063 0.359-0.313 0.891-0.75 1.625h-2.625q0.5-0.438 0.563-0.563-0.313 0.016-0.625 0.016-3.156 0-5.469-2.328-2.359-2.391-2.359-5.641 0-0.234 0.016-0.484-0.234 0.172-0.5 0.438-1.75 1.75-1.75 4.25t1.75 4.25l0.063 0.063h-2.563q-1.266-1.953-1.266-4.25 0-0.438 0.047-0.875z"></path>
</svg>
