<!-- Generated by IcoMoon.io -->
<svg version="1.1" xmlns="http://www.w3.org/2000/svg" width="32" height="32" viewBox="0 0 32 32">
<title>5</title>
<path d="M0.063 19.719q0-2.906 2.063-4.969t4.938-2.063q0.469 0 1 0.125 0-0.031 0.031-0.094t0.031-0.094q-0.063-0.5-0.063-0.938 0-2.234 1.625-3.906 1.609-1.656 3.938-1.656 0.266 0 0.438 0.063 2.313-2.875 6-2.875t6 2.875q0.172-0.063 0.438-0.063 2.328 0 3.938 1.656 1.625 1.672 1.625 3.906 0 2.188-1.5 3.75 1.5 1.938 1.5 4.25 0 2.938-2.063 4.969-2.047 2.031-4.938 2.031-1.328 0-2.5-0.438-2.813 2.438-6.5 2.438t-6.5-2.438q-1.172 0.438-2.5 0.438-2.891 0-4.938-2.031-2.063-2.031-2.063-4.938z"></path>
</svg>
