<!-- Generated by IcoMoon.io -->
<svg version="1.1" xmlns="http://www.w3.org/2000/svg" width="32" height="32" viewBox="0 0 32 32">
<title>untitled31</title>
<path d="M3 26.938q0-0.438 0.281-0.719t0.719-0.281h24q0.438 0 0.719 0.281t0.281 0.719-0.281 0.719-0.719 0.281h-24q-0.438 0-0.719-0.281t-0.281-0.719zM3 22.938q0-0.438 0.281-0.719t0.719-0.281h24q0.438 0 0.719 0.281t0.281 0.719-0.281 0.719-0.719 0.281h-24q-0.438 0-0.719-0.281t-0.281-0.719zM3 18.938q0-0.438 0.281-0.719t0.719-0.281h24q0.438 0 0.719 0.281t0.281 0.719-0.281 0.719-0.719 0.281h-24q-0.438 0-0.719-0.281t-0.281-0.719zM3 14.938q0-0.438 0.281-0.719t0.719-0.281h2q0.438 0 0.719 0.281t0.281 0.719-0.281 0.719-0.719 0.281h-2q-0.438 0-0.719-0.281t-0.281-0.719zM6.813 7.188q-0.344-0.375-0.344-0.734t0.344-0.703 0.703-0.344 0.734 0.344l1.375 1.438q0.344 0.344 0.344 0.688t-0.344 0.688-0.688 0.344l-0.688-0.344zM9 14.938q0-2.875 2.063-4.938t4.938-2.063 4.938 2.063 2.063 4.938q0 0.281-0.125 1h-2q0.125-0.531 0.125-1 0-2.063-1.469-3.531t-3.531-1.469-3.531 1.469-1.469 3.531q0 0.469 0.125 1h-2q-0.125-0.719-0.125-1zM15 4.938v-2q0-0.438 0.281-0.719t0.719-0.281 0.719 0.281 0.281 0.719v2q0 0.438-0.281 0.719t-0.719 0.281-0.719-0.281-0.281-0.719zM22.375 8.563q-0.344-0.344-0.344-0.688t0.344-0.688l1.375-1.438q0.375-0.344 0.734-0.344t0.703 0.344 0.344 0.703-0.344 0.734l-1.438 1.375q-0.344 0.344-0.688 0.344zM25 14.938q0-0.438 0.281-0.719t0.719-0.281h2q0.438 0 0.719 0.281t0.281 0.719-0.281 0.719-0.719 0.281h-2q-0.438 0-0.719-0.281t-0.281-0.719z"></path>
</svg>
