<!-- Generated by IcoMoon.io -->
<svg version="1.1" xmlns="http://www.w3.org/2000/svg" width="32" height="32" viewBox="0 0 32 32">
<title>untitled33</title>
<path d="M0 27q0-0.438 0.281-0.719t0.719-0.281h30q0.438 0 0.719 0.281t0.281 0.719-0.281 0.719-0.719 0.281h-30q-0.438 0-0.719-0.281t-0.281-0.719zM0 23q0-0.438 0.281-0.719t0.719-0.281h30q0.438 0 0.719 0.281t0.281 0.719-0.281 0.719-0.719 0.281h-30q-0.438 0-0.719-0.281t-0.281-0.719zM0 19q0-0.438 0.281-0.719t0.719-0.281h30q0.438 0 0.719 0.281t0.281 0.719-0.281 0.719-0.719 0.281h-30q-0.438 0-0.719-0.281t-0.281-0.719zM0 15q0-2.875 2.063-4.938t4.938-2.063q0.563 0 1 0.063 1.391-1.953 3.5-3 2.156-1.063 4.5-1.063t4.5 1.063q2.109 1.047 3.5 3 0.438-0.063 1-0.063 2.875 0 4.938 2.063t2.063 4.938q0 0.281-0.125 1h-2q0.125-0.531 0.125-1 0-2.063-1.469-3.531t-3.531-1.469q-1 0-1.875 0.375-1.047-1.984-2.938-3.188-1.859-1.188-4.188-1.188t-4.188 1.188q-1.891 1.203-2.938 3.188-0.875-0.375-1.875-0.375-2.063 0-3.531 1.469t-1.469 3.531q0 0.469 0.125 1h-2q-0.125-0.719-0.125-1z"></path>
</svg>
