<!-- Generated by IcoMoon.io -->
<svg version="1.1" xmlns="http://www.w3.org/2000/svg" width="32" height="32" viewBox="0 0 32 32">
<title>6</title>
<path d="M0 16.438q0-2.875 2.063-4.938t4.938-2.063q0.563 0 1 0.063 0.047-0.125 0.125-0.125-0.125-0.594-0.125-0.938 0-2.313 1.625-3.938t3.938-1.625h0.438q2.313-2.875 6-2.875t6 2.875h0.438q2.313 0 3.938 1.625t1.625 3.938q0 2.125-1.5 3.75 1.5 1.875 1.5 4.25 0 2.875-2.063 4.938t-4.938 2.063q-1.328 0-2.5-0.438-2.609 2.297-6.188 2.375l-0.313 0.625 2 2-6 4 2-4-2-2 1.438-0.938q-2.313-0.625-3.938-2.063-1.172 0.438-2.5 0.438-2.875 0-4.938-2.063t-2.063-4.938z"></path>
</svg>
