<!-- Generated by IcoMoon.io -->
<svg version="1.1" xmlns="http://www.w3.org/2000/svg" width="32" height="32" viewBox="0 0 32 32">
<title>untitled23</title>
<path d="M3 16q0-0.438 0.281-0.719t0.719-0.281h2q0.438 0 0.719 0.281t0.281 0.719-0.281 0.719-0.719 0.281h-2q-0.438 0-0.719-0.281t-0.281-0.719zM6.813 25.188q-0.344-0.344-0.344-0.703t0.344-0.734l1.438-1.375q0.344-0.391 0.703-0.391l0.672 0.359q0.344 0.359 0.344 0.711t-0.344 0.695l-1.375 1.438q-0.375 0.344-0.734 0.344t-0.703-0.344zM6.813 8.25q-0.344-0.375-0.344-0.734t0.344-0.703 0.703-0.344 0.734 0.344l1.375 1.438q0.344 0.344 0.344 0.688t-0.344 0.688-0.688 0.344l-0.688-0.344zM9 16q0-2.875 2.063-4.938t4.938-2.063 4.938 2.063 2.063 4.938-2.063 4.938-4.938 2.063-4.938-2.063-2.063-4.938zM11 16q0 2.063 1.469 3.531t3.531 1.469 3.5-1.438q1.5-1.5 1.5-3.563t-1.469-3.531-3.531-1.469-3.531 1.469-1.469 3.531zM15 28v-2q0-0.438 0.281-0.719t0.719-0.281 0.719 0.281 0.281 0.719v2q0 0.438-0.281 0.719t-0.719 0.281-0.719-0.281-0.281-0.719zM15 6v-2q0-0.438 0.281-0.719t0.719-0.281 0.719 0.281 0.281 0.719v2q0 0.438-0.281 0.719t-0.719 0.281-0.719-0.281-0.281-0.719zM22.375 23.75q-0.344-0.344-0.344-0.688t0.344-0.688 0.688-0.344l0.688 0.344 1.438 1.375q0.344 0.375 0.344 0.734t-0.344 0.703-0.703 0.344-0.734-0.344zM22.375 9.625q-0.344-0.344-0.344-0.688t0.344-0.688l1.375-1.438q0.375-0.344 0.734-0.344t0.703 0.344 0.344 0.703-0.344 0.734l-1.438 1.375q-0.344 0.344-0.688 0.344zM25 16q0-0.438 0.281-0.719t0.719-0.281h2q0.438 0 0.719 0.281t0.281 0.719-0.281 0.719-0.719 0.281h-2q-0.438 0-0.719-0.281t-0.281-0.719z"></path>
</svg>
