<!-- Generated by IcoMoon.io -->
<svg version="1.1" xmlns="http://www.w3.org/2000/svg" width="32" height="32" viewBox="0 0 32 32">
<title>untitled24</title>
<path d="M8.188 15.813q0-3.313 2.375-5.688 1.25-1.25 3-1.875 0.172-0.063 0.328-0.063 0.375 0 0.68 0.313t0.305 0.703q0 0.172-0.063 0.359-0.344 0.969-0.328 1.969 0 0.672 0.141 1.344 0.375 1.688 1.594 2.906t2.906 1.594q0.672 0.156 1.344 0.141 1 0 1.969-0.328 0.188-0.063 0.359-0.063 0.391 0 0.703 0.313t0.313 0.672q0 0.156-0.063 0.328-0.625 1.75-1.875 3-2.375 2.375-5.688 2.375t-5.656-2.344-2.344-5.656zM10.188 15.781q0 2.484 1.75 4.281 1.734 1.734 4.188 1.734 0.203 0 0.406-0.016 2.734-0.172 4.344-2.281-0.313 0.016-0.625 0.016-3.156 0-5.461-2.297t-2.305-5.469q0-0.313 0.016-0.625-0.328 0.203-0.563 0.438-1.75 1.75-1.75 4.219z"></path>
</svg>
