<!-- Generated by IcoMoon.io -->
<svg version="1.1" xmlns="http://www.w3.org/2000/svg" width="32" height="32" viewBox="0 0 32 32">
<title>untitled26</title>
<path d="M1.938 18.938q0-0.438 0.344-0.719t0.844-0.281h5.375q-0.328-1-0.438-2h-3.125q-0.438 0-0.719-0.281t-0.281-0.719 0.281-0.719 0.719-0.281h3.125q0.109-1 0.438-2h-5.563q-0.438 0-0.719-0.281t-0.281-0.719 0.281-0.719 0.719-0.281h6.5q1.234-1.797 3.219-2.906 1.953-1.094 4.281-1.094 3.453 0 5.969 2.313 2.531 2.328 2.906 5.688h5.125q0.438 0 0.719 0.281t0.281 0.719-0.281 0.719-0.719 0.281h-5.125q-0.109 1-0.438 2h1.375q0.5 0 0.844 0.281t0.344 0.719-0.344 0.719-0.844 0.281h-2.313q-1.234 1.797-3.219 2.906-1.953 1.094-4.281 1.094t-4.281-1.094q-1.984-1.109-3.219-2.906h-6.313q-0.5 0-0.844-0.281t-0.344-0.719zM10.063 15.938q0.125 1.063 0.563 2h12.625q0.438-0.938 0.563-2h-13.75zM10.063 13.938h13.75q-0.375-2.578-2.313-4.281-1.953-1.719-4.563-1.719-2.797 0-4.875 2h4.875q0.438 0 0.719 0.281t0.281 0.719-0.281 0.719-0.719 0.281h-6.313q-0.438 0.938-0.563 2zM12.063 19.938q2.078 2 4.875 2t4.875-2h-9.75z"></path>
</svg>
