<!-- Generated by IcoMoon.io -->
<svg version="1.1" xmlns="http://www.w3.org/2000/svg" width="32" height="32" viewBox="0 0 32 32">
<title>untitled30</title>
<path d="M0.063 23q0-2.875 2.063-4.938t4.938-2.063q0.563 0 1 0.063 2.5-3.438 6.75-4-0.297-1-0.297-2.047 0-0.984 0.266-2.016 0.531-2.125 2.031-3.625 1.25-1.25 3-1.875 0.219-0.094 0.406-0.094 0.359 0 0.656 0.313 0.313 0.328 0.313 0.703 0 0.156-0.063 0.328-0.391 1.047-0.391 2.094 0 0.625 0.141 1.25 0.375 1.656 1.594 2.906 1.234 1.25 2.906 1.625 0.641 0.141 1.266 0.141 1.063 0 2.109-0.391 0.172-0.063 0.328-0.063 0.375 0 0.703 0.313 0.313 0.297 0.313 0.656 0 0.188-0.094 0.406-0.625 1.75-1.875 3-0.25 0.25-0.875 0.688 2.125 0.672 3.469 2.5 1.344 1.813 1.344 4.125 0 2.875-2.063 4.938t-4.938 2.063q-1.328 0-2.5-0.438-2.813 2.438-6.5 2.438t-6.5-2.438q-1.172 0.438-2.5 0.438-2.875 0-4.938-2.063t-2.063-4.938zM2.063 23q0 2.063 1.469 3.531t3.531 1.469q1.563 0 2.875-0.938 2.438 2.938 6.125 2.938t6.125-2.938q1.313 0.938 2.875 0.938 2.063 0 3.531-1.469t1.469-3.531-1.469-3.531-3.531-1.469q-1 0-1.875 0.375-0.063-0.063-0.156-0.219t-0.094-0.219q-0.828-1.266-1.875-2.188-1.219-0.922-2.688-1.375-1.125-0.375-2.313-0.375-0.438 0-0.438 0.063-2.203 0.078-3.938 1.25-1.734 1.188-2.75 3.063-0.875-0.375-1.875-0.375-2.063 0-3.531 1.469t-1.469 3.531zM16.625 8.75q-0.141 0.656-0.141 1.297 0 1.047 0.391 2.016 4.297 0.297 7 3.75 2.078-0.5 3.313-2.063-0.25 0.016-0.484 0.016-3.25 0-5.641-2.359-2.328-2.328-2.328-5.469 0-0.313 0.016-0.625-0.234 0.172-0.5 0.438-1.25 1.25-1.625 3z"></path>
</svg>
