<!-- Generated by IcoMoon.io -->
<svg version="1.1" xmlns="http://www.w3.org/2000/svg" width="32" height="32" viewBox="0 0 32 32">
<title>untitled29</title>
<path d="M0 23q0-2.813 1.969-4.844t4.781-2.156q-0.75-1.438-0.75-3 0-2.875 2.063-4.938t4.938-2.063q2.859 0 4.906 2 2.016 1.969 2.094 4.875 2.422 1.047 4 3.188 0.438-0.063 1-0.063 2.875 0 4.938 2.063t2.063 4.938-2.063 4.938-4.938 2.063q-1.328 0-2.5-0.438-2.813 2.438-6.5 2.438t-6.5-2.438q-1.172 0.438-2.5 0.438-2.875 0-4.938-2.063t-2.063-4.938zM0 13q0-0.438 0.281-0.719t0.719-0.281h2q0.438 0 0.719 0.281t0.281 0.719-0.281 0.719-0.719 0.281h-2q-0.438 0-0.719-0.281t-0.281-0.719zM2 23q0 2.063 1.469 3.531t3.531 1.469q1.563 0 2.875-0.938 2.438 2.938 6.125 2.938t6.125-2.938q1.313 0.938 2.875 0.938 2.063 0 3.531-1.469t1.469-3.531-1.469-3.531-3.531-1.469q-1 0-1.875 0.375-1.188-2.25-3.438-3.438-0.891-0.5-1.875-0.688-0.906-0.25-1.813-0.25-3.688 0-6.125 2.875-0.609 0.734-1 1.5-0.031 0-0.5-0.125-0.734-0.25-1.375-0.25-2.063 0-3.531 1.469t-1.469 3.531zM3.813 5.25q-0.344-0.375-0.344-0.734t0.344-0.703 0.703-0.344 0.734 0.344l1.375 1.438q0.344 0.344 0.344 0.688t-0.344 0.688-0.688 0.344l-0.688-0.344zM8 13q0 1.203 0.625 2.313 2.938-3.313 7.375-3.313 0.875 0 1.938 0.188-0.313-1.813-1.688-3t-3.25-1.188q-2.063 0-3.531 1.469t-1.469 3.531zM12 3v-2q0-0.438 0.281-0.719t0.719-0.281 0.719 0.281 0.281 0.719v2q0 0.438-0.281 0.719t-0.719 0.281-0.719-0.281-0.281-0.719zM19.375 6.625q-0.344-0.344-0.344-0.688t0.344-0.688l1.375-1.438q0.375-0.344 0.734-0.344t0.703 0.344 0.344 0.703-0.344 0.734l-1.438 1.375q-0.344 0.344-0.688 0.344zM22 13q0-0.438 0.281-0.719t0.719-0.281h2q0.438 0 0.719 0.281t0.281 0.719-0.281 0.719-0.719 0.281h-2q-0.438 0-0.719-0.281t-0.281-0.719z"></path>
</svg>
