<!-- Generated by IcoMoon.io -->
<svg version="1.1" xmlns="http://www.w3.org/2000/svg" width="32" height="32" viewBox="0 0 32 32">
<title>untitled16</title>
<path d="M0 23q0-2.875 2.063-4.938t4.938-2.063q0.563 0 1 0.063 2.5-3.438 6.75-4-0.563-1.953-0.031-4.063 0.531-2.125 2.031-3.625 1.25-1.25 3-1.875 0.609-0.25 1.063 0.219 0.438 0.469 0.25 1.031-0.625 1.672-0.25 3.344 0.375 1.656 1.594 2.906 1.234 1.25 2.906 1.625 1.703 0.375 3.375-0.25 0.563-0.188 1.031 0.25 0.469 0.453 0.219 1.063-0.625 1.75-1.875 3-0.25 0.25-0.875 0.688 2.125 0.672 3.469 2.5 1.344 1.813 1.344 4.125 0 2.875-2.063 4.938t-4.938 2.063q-1.328 0-2.5-0.438-2.813 2.438-6.5 2.438t-6.5-2.438q-1.172 0.438-2.5 0.438-2.875 0-4.938-2.063t-2.063-4.938zM16.563 8.75q-0.375 1.766 0.25 3.313 4.297 0.297 7 3.75 2.078-0.5 3.313-2.063-3.563 0.188-6.125-2.344-2.563-2.547-2.313-6.094-0.234 0.172-0.5 0.438-1.25 1.25-1.625 3z"></path>
</svg>
