<!-- Generated by IcoMoon.io -->
<svg version="1.1" xmlns="http://www.w3.org/2000/svg" width="32" height="32" viewBox="0 0 32 32">
<title>4</title>
<path d="M0 11q0-2.875 2.063-4.938t4.938-2.063q0.563 0 1 0.063 1.391-1.953 3.5-3 2.156-1.063 4.5-1.063t4.5 1.063q2.109 1.047 3.5 3 0.438-0.063 1-0.063 2.875 0 4.938 2.063t2.063 4.938-2.063 4.938-4.938 2.063q-1.328 0-2.5-0.438-2.813 2.438-6.5 2.438t-6.5-2.438q-1.172 0.438-2.5 0.438-2.875 0-4.938-2.063t-2.063-4.938zM4 22q0-0.813 0.594-1.406t1.406-0.594 1.375 0.625q0.625 0.563 0.625 1.375t-0.594 1.406-1.406 0.594-1.406-0.594-0.594-1.406zM8 30q0-0.813 0.594-1.406t1.406-0.594 1.375 0.625q0.625 0.563 0.625 1.375t-0.594 1.406-1.406 0.594-1.406-0.594-0.594-1.406zM14 24q0-0.813 0.594-1.406t1.406-0.594 1.375 0.625q0.625 0.563 0.625 1.375t-0.594 1.406-1.406 0.594-1.406-0.594-0.594-1.406zM20 30q0-0.813 0.594-1.406t1.406-0.594 1.375 0.625q0.625 0.563 0.625 1.375t-0.594 1.406-1.406 0.594-1.406-0.594-0.594-1.406zM24 22q0-0.813 0.594-1.406t1.406-0.594 1.375 0.625q0.625 0.563 0.625 1.375t-0.594 1.406-1.406 0.594-1.406-0.594-0.594-1.406z"></path>
</svg>
