<!-- Generated by IcoMoon.io -->
<svg version="1.1" xmlns="http://www.w3.org/2000/svg" width="32" height="32" viewBox="0 0 32 32">
<title>untitled27</title>
<path d="M3.938 21q0-0.438 0.375-0.719t0.938-0.281h15.688q1.25 0 2.125 0.875t0.875 2.125-0.875 2.125-2.125 0.875-2.125-0.875-0.875-2.125q0-0.5 0.188-1h-12.875q-0.563 0-0.938-0.281t-0.375-0.719zM3.938 17q0-0.438 0.281-0.719t0.719-0.281h19.188q-0.188-0.484-0.188-1 0-1.25 0.875-2.125t2.125-0.875 2.125 0.875 0.875 2.125-0.875 2.125-2.125 0.875h-22q-0.438 0-0.719-0.281t-0.281-0.719zM3.938 13q0-0.438 0.281-0.719t0.719-0.281h9.188q-0.188-0.5-0.188-1 0-1.25 0.875-2.125t2.125-0.875 2.125 0.875 0.875 2.125-0.875 2.125-2.125 0.875h-12q-0.438 0-0.719-0.281t-0.281-0.719z"></path>
</svg>
