<!-- Generated by IcoMoon.io -->
<svg version="1.1" xmlns="http://www.w3.org/2000/svg" width="32" height="32" viewBox="0 0 32 32">
<title>3</title>
<path d="M0 11q0-2.875 2.063-4.938t4.938-2.063q0.563 0 1 0.063 1.391-1.953 3.5-3 2.156-1.063 4.5-1.063t4.5 1.063q2.109 1.047 3.5 3 0.438-0.063 1-0.063 2.875 0 4.938 2.063t2.063 4.938-2.063 4.938-4.938 2.063q-1.328 0-2.5-0.438-2.813 2.438-6.5 2.438t-6.5-2.438q-1.172 0.438-2.5 0.438-2.875 0-4.938-2.063t-2.063-4.938zM1.906 23.563q-0.156-0.625 0.469-0.813l0.75-0.188q0-0.375 0.188-0.688l-0.563-0.563q-0.438-0.438 0-0.906 0.453-0.469 0.938-0.031l0.563 0.563q0.297-0.109 0.688-0.188l0.188-0.75q0.188-0.625 0.813-0.438t0.438 0.813l-0.188 0.75q0.156 0.094 0.25 0.188 0.141 0.141 0.25 0.313l0.75-0.25q0.625-0.109 0.813 0.5 0.188 0.625-0.5 0.813l-0.75 0.188q0 0.375-0.188 0.688l0.563 0.563q0.5 0.453 0.031 0.906-0.469 0.469-0.969 0.031l-0.5-0.563q-0.359 0.109-0.688 0.188l-0.25 0.75q-0.125 0.641-0.781 0.469-0.656-0.156-0.469-0.844l0.188-0.75q-0.234-0.109-0.5-0.5l-0.75 0.25q-0.625 0.109-0.781-0.5zM4.594 23.188q0.469 0.438 0.938 0 0.453-0.438-0.031-0.875-0.453-0.5-0.906-0.031-0.469 0.469 0 0.906zM11.125 28.406q0.125-0.469 0.5-0.656l1.125-0.688q-0.109-0.594 0-1.188l-1.125-0.625q-0.375-0.25-0.5-0.68t0.094-0.852q0.219-0.406 0.656-0.531t0.875 0.125l1.125 0.688q0.438-0.438 1-0.625v-1.313q0-0.438 0.344-0.781t0.781-0.344 0.781 0.344 0.344 0.781v1.313q0.563 0.188 1 0.625l1.125-0.688q0.438-0.25 0.875-0.125t0.656 0.531q0.219 0.422 0.094 0.852t-0.5 0.68l-1.125 0.625q0.109 0.594 0 1.188l1.125 0.688q0.375 0.188 0.5 0.656t-0.094 0.844q-0.234 0.391-0.664 0.5t-0.867-0.125l-1.125-0.625q-0.453 0.375-1 0.563v1.313q0 0.484-0.336 0.805t-0.789 0.32-0.789-0.32-0.336-0.805v-1.313q-0.547-0.188-1-0.563l-1.125 0.625q-0.438 0.234-0.867 0.125t-0.664-0.5q-0.219-0.375-0.094-0.844zM14.875 26.469q0 0.469 0.344 0.781t0.781 0.313 0.75-0.313q0.375-0.313 0.375-0.781t-0.344-0.781-0.781-0.313-0.781 0.313-0.344 0.781zM23.75 23.875q0.188-0.625 0.813-0.438l0.75 0.188q0.109-0.172 0.25-0.313 0.094-0.094 0.25-0.188l-0.188-0.75q-0.188-0.625 0.438-0.813t0.813 0.438l0.188 0.75q0.391 0.078 0.688 0.188l0.563-0.563q0.484-0.438 0.938 0.031 0.438 0.469 0 0.906l-0.563 0.563q0.188 0.313 0.188 0.688l0.75 0.188q0.625 0.188 0.469 0.813-0.156 0.609-0.781 0.5l-0.75-0.25q-0.266 0.391-0.5 0.5l0.188 0.75q0.188 0.688-0.469 0.844-0.656 0.172-0.781-0.469l-0.25-0.75q-0.391-0.078-0.688-0.188l-0.5 0.563q-0.5 0.438-0.969-0.031-0.469-0.453 0.031-0.906l0.563-0.563q-0.188-0.297-0.188-0.688l-0.75-0.188q-0.688-0.188-0.5-0.813zM26.469 25.188q0.469 0.438 0.938 0 0.453-0.438-0.031-0.875-0.453-0.5-0.906-0.031-0.469 0.469 0 0.906z"></path>
</svg>
