<!-- Generated by IcoMoon.io -->
<svg version="1.1" xmlns="http://www.w3.org/2000/svg" width="32" height="32" viewBox="0 0 32 32">
<title>untitled13</title>
<path d="M3 16q0-0.438 0.281-0.719t0.719-0.281h2q0.438 0 0.719 0.281t0.281 0.719-0.281 0.719-0.719 0.281h-2q-0.438 0-0.719-0.281t-0.281-0.719zM6.813 25.188q-0.688-0.688 0-1.438l1.438-1.375q0.688-0.688 1.375 0t0 1.375l-1.375 1.438q-0.75 0.688-1.438 0zM6.813 8.25q-0.688-0.75 0-1.438t1.438 0l1.375 1.438q0.688 0.688 0 1.375t-1.375 0zM9 16q0-2.875 2.063-4.938t4.938-2.063 4.938 2.063 2.063 4.938-2.063 4.938-4.938 2.063-4.938-2.063-2.063-4.938zM15 28v-2q0-0.438 0.281-0.719t0.719-0.281 0.719 0.281 0.281 0.719v2q0 0.438-0.281 0.719t-0.719 0.281-0.719-0.281-0.281-0.719zM15 6v-2q0-0.438 0.281-0.719t0.719-0.281 0.719 0.281 0.281 0.719v2q0 0.438-0.281 0.719t-0.719 0.281-0.719-0.281-0.281-0.719zM22.344 22.375q0.719-0.688 1.406 0l1.438 1.375q0.688 0.75 0 1.438t-1.438 0l-1.375-1.438q-0.766-0.688-0.031-1.375zM22.344 9.625q-0.734-0.688 0.031-1.375l1.375-1.438q0.75-0.688 1.438 0t0 1.438l-1.438 1.375q-0.688 0.688-1.406 0zM25 16q0-0.438 0.281-0.719t0.719-0.281h2q0.438 0 0.719 0.281t0.281 0.719-0.281 0.719-0.719 0.281h-2q-0.438 0-0.719-0.281t-0.281-0.719z"></path>
</svg>
