<!-- Generated by IcoMoon.io -->
<svg version="1.1" xmlns="http://www.w3.org/2000/svg" width="32" height="32" viewBox="0 0 32 32">
<title>untitled15</title>
<path d="M0 23q0-2.813 1.969-4.844t4.781-2.156q-0.75-1.438-0.75-3 0-2.875 2.063-4.938t4.938-2.063q2.859 0 4.906 2 2.016 1.969 2.094 4.875 2.422 1.047 4 3.188 0.438-0.063 1-0.063 2.875 0 4.938 2.063t2.063 4.938-2.063 4.938-4.938 2.063q-1.328 0-2.5-0.438-2.813 2.438-6.5 2.438t-6.5-2.438q-1.172 0.438-2.5 0.438-2.875 0-4.938-2.063t-2.063-4.938zM0 13q0-0.438 0.281-0.719t0.719-0.281h2q0.438 0 0.719 0.281t0.281 0.719-0.281 0.719-0.719 0.281h-2q-0.438 0-0.719-0.281t-0.281-0.719zM3.813 5.25q-0.688-0.75 0-1.438t1.438 0l1.375 1.438q0.688 0.688 0 1.375t-1.375 0zM8 13q0 1.203 0.625 2.313 2.938-3.313 7.375-3.313 0.875 0 1.938 0.188-0.313-1.813-1.688-3t-3.25-1.188q-2.063 0-3.531 1.469t-1.469 3.531zM12 3v-2q0-0.438 0.281-0.719t0.719-0.281 0.719 0.281 0.281 0.719v2q0 0.438-0.281 0.719t-0.719 0.281-0.719-0.281-0.281-0.719zM19.375 6.625q-0.688-0.688 0-1.375l1.375-1.438q0.75-0.688 1.438 0t0 1.438l-1.438 1.375q-0.688 0.688-1.375 0zM22 13q0-0.438 0.281-0.719t0.719-0.281h2q0.438 0 0.719 0.281t0.281 0.719-0.281 0.719-0.719 0.281h-2q-0.438 0-0.719-0.281t-0.281-0.719z"></path>
</svg>
